<svg width="23" height="26" viewBox="0 0 23 26" fill="none" xmlns="http://www.w3.org/2000/svg">
<path d="M20.1009 8.44583C20.3524 8.44583 20.5805 8.55554 20.7608 8.74093C20.9288 8.93892 21.0134 9.18483 20.9889 9.44462C20.9889 9.53037 20.3168 18.0302 19.9329 21.6079C19.6925 23.8035 18.2771 25.1365 16.1541 25.173C14.5216 25.2096 12.9259 25.2222 11.3548 25.2222C9.68675 25.2222 8.05551 25.2096 6.4721 25.173C4.42017 25.1239 3.00357 23.7669 2.77544 21.6079C2.38051 18.0176 1.72065 9.53037 1.70839 9.44462C1.69612 9.18483 1.77952 8.93892 1.94878 8.74093C2.11558 8.55554 2.35598 8.44583 2.60864 8.44583H20.1009ZM13.9539 0C15.0687 0 16.0647 0.778098 16.3529 1.88786L16.5589 2.80847C16.7257 3.55882 17.3758 4.08974 18.1239 4.08974H21.801C22.2916 4.08974 22.7 4.49708 22.7 5.01539V5.49461C22.7 6.00031 22.2916 6.42025 21.801 6.42025H0.900249C0.408423 6.42025 0 6.00031 0 5.49461V5.01539C0 4.49708 0.408423 4.08974 0.900249 4.08974H4.57729C5.32422 4.08974 5.97427 3.55882 6.1423 2.80973L6.33486 1.94966C6.63412 0.778098 7.619 0 8.74615 0H13.9539Z" fill="#202020"/>
</svg>
