<svg width="36" height="45" viewBox="0 0 36 45" fill="none" xmlns="http://www.w3.org/2000/svg">
<path fill-rule="evenodd" clip-rule="evenodd" d="M3.95058 0.258545C1.98601 0.882 0.495542 2.59064 0.109449 4.66214C0.0191133 5.14691 -0.0167735 11.125 0.00728853 21.6931L0.0444129 37.9773L0.363544 38.761C1.05859 40.468 3.05052 41.9314 4.90605 42.0983L5.75056 42.1743V41.2886V40.4028L4.86521 40.1861C3.40293 39.8283 2.37885 38.951 2.03496 37.7618C1.61037 36.2935 2.41501 34.7832 4.00063 34.0722L4.71933 33.75L15.616 33.7105L26.5127 33.671V16.8355V0L15.616 0.00736362C5.53854 0.0141818 4.66158 0.033 3.95058 0.258545ZM28.4376 16.8409V33.6818H32.2188H36V16.8409V0H32.2188H28.4376V16.8409ZM7.56704 40.0349L7.60677 44.479L7.93141 44.7394C8.10988 44.8827 8.38845 45 8.55042 45C8.71225 45 9.62771 44.422 10.5846 43.7156L12.3244 42.431L14.0661 43.7156C15.0567 44.446 15.9415 45 16.1176 45C16.2881 45 16.562 44.8579 16.7264 44.6845C17.0205 44.3738 17.0253 44.2984 17.0253 39.9799V35.5909H12.2763H7.52716L7.56704 40.0349ZM18.9503 41.25V42.1364H27.4752H36V41.25V40.3636H27.4752H18.9503V41.25Z" fill="#1A7CFE"/>
</svg>
